# xmcd CD database file
#
# Track frame offsets:
#	150
#	2760
#	23375
#	41042
#	62230
#	63620
#	82442
#	106230
#	127929
#	132717
#	149457
#	161522
#	183020
#	202427
#	219135
#	238602
#	244947
#	266660
#	287205
#	306680
#	310877
#	332544
#
# Disc length: 4671 seconds
#
# Revision: 0
# Processed by: cddbd v1.4PL0 Copyright (c) Steve Scherf et al.
# Submitted via: Feurio! 1.63 - http://www.feurio.com
#
DISCID=53123d16
DTITLE=Cunnie Williams - Star Hotel
DYEAR=1900
DGENRE=R&B
TTITLE0=VIP Lounge
TTITLE1=World Celebration
TTITLE2=Spinning Wheel
TTITLE3=Saturday
TTITLE4=On The Way To ...
TTITLE5=Star Hotel
TTITLE6=Barry's Mood
TTITLE7=Here I Go Again
TTITLE8=New York
TTITLE9=Can I Rock ?
TTITLE10=Free My Mind
TTITLE11=Black Boy
TTITLE12=By My Side
TTITLE13=I'll Be Over You
TTITLE14=Something's Just Ain't Right
TTITLE15=VB Vibe
TTITLE16=Mad About It
TTITLE17=Spirit
TTITLE18=Believe
TTITLE19=Mad Outro
TTITLE20=With Or Without You
TTITLE21=No I Love You
EXTD=
EXTT0=Interlude
EXTT1=
EXTT2=
EXTT3=Feat. Monie Love
EXTT4=Interlude
EXTT5=
EXTT6=
EXTT7=
EXTT8=Interlude
EXTT9=
EXTT10=Interlude
EXTT11=
EXTT12=Feat. Buddha Monk
EXTT13=
EXTT14=
EXTT15=Interlude
EXTT16=
EXTT17=
EXTT18=
EXTT19=
EXTT20=
EXTT21=
PLAYORDER=
